<mxfile host="app.diagrams.net" modified="2022-03-04T05:08:46.800Z" agent="5.0 (X11)" etag="EGKYyjHt6EUIMTcNa3EC" version="16.6.4" type="github">
  <diagram id="QS9KMBKaAERe8l9Y9Lax" name="Page-1">
    <mxGraphModel dx="815" dy="806" grid="1" gridSize="10" guides="1" tooltips="1" connect="1" arrows="1" fold="1" page="1" pageScale="1" pageWidth="850" pageHeight="1100" math="0" shadow="0">
      <root>
        <mxCell id="0" />
        <mxCell id="1" parent="0" />
        <mxCell id="oylmR4pLxYia0qEO0QHr-10" style="edgeStyle=orthogonalEdgeStyle;rounded=0;orthogonalLoop=1;jettySize=auto;html=1;" edge="1" parent="1" source="oylmR4pLxYia0qEO0QHr-1">
          <mxGeometry relative="1" as="geometry">
            <mxPoint x="360" y="210" as="targetPoint" />
            <Array as="points">
              <mxPoint x="310" y="320" />
              <mxPoint x="310" y="210" />
            </Array>
          </mxGeometry>
        </mxCell>
        <mxCell id="oylmR4pLxYia0qEO0QHr-11" style="edgeStyle=orthogonalEdgeStyle;rounded=0;orthogonalLoop=1;jettySize=auto;html=1;" edge="1" parent="1" source="oylmR4pLxYia0qEO0QHr-1">
          <mxGeometry relative="1" as="geometry">
            <mxPoint x="310" y="320" as="targetPoint" />
          </mxGeometry>
        </mxCell>
        <mxCell id="oylmR4pLxYia0qEO0QHr-1" value="PC" style="whiteSpace=wrap;html=1;aspect=fixed;" vertex="1" parent="1">
          <mxGeometry x="140" y="280" width="80" height="80" as="geometry" />
        </mxCell>
        <mxCell id="oylmR4pLxYia0qEO0QHr-2" value="Mux" style="shadow=0;dashed=0;align=center;html=1;strokeWidth=1;shape=mxgraph.electrical.abstract.mux2;" vertex="1" parent="1">
          <mxGeometry x="663" y="149" width="80" height="120" as="geometry" />
        </mxCell>
        <mxCell id="oylmR4pLxYia0qEO0QHr-4" style="edgeStyle=orthogonalEdgeStyle;rounded=0;orthogonalLoop=1;jettySize=auto;html=1;entryX=0;entryY=0.65;entryDx=0;entryDy=3;entryPerimeter=0;exitX=1;exitY=0.5;exitDx=0;exitDy=-5;exitPerimeter=0;" edge="1" parent="1" source="oylmR4pLxYia0qEO0QHr-3">
          <mxGeometry relative="1" as="geometry">
            <mxPoint x="613" y="197" as="sourcePoint" />
            <mxPoint x="663" y="178" as="targetPoint" />
            <Array as="points" />
          </mxGeometry>
        </mxCell>
        <mxCell id="oylmR4pLxYia0qEO0QHr-6" style="edgeStyle=orthogonalEdgeStyle;rounded=0;orthogonalLoop=1;jettySize=auto;html=1;exitX=0.349;exitY=0.003;exitDx=0;exitDy=0;exitPerimeter=0;entryX=0;entryY=0.21666666666666667;entryDx=0;entryDy=3;entryPerimeter=0;" edge="1" parent="1" source="oylmR4pLxYia0qEO0QHr-5" target="oylmR4pLxYia0qEO0QHr-3">
          <mxGeometry relative="1" as="geometry" />
        </mxCell>
        <mxCell id="oylmR4pLxYia0qEO0QHr-3" value="Mux" style="shadow=0;dashed=0;align=center;html=1;strokeWidth=1;shape=mxgraph.electrical.abstract.mux2;" vertex="1" parent="1">
          <mxGeometry x="533" y="123" width="80" height="120" as="geometry" />
        </mxCell>
        <mxCell id="oylmR4pLxYia0qEO0QHr-5" value="add" style="shape=trapezoid;perimeter=trapezoidPerimeter;whiteSpace=wrap;html=1;fixedSize=1;rotation=90;" vertex="1" parent="1">
          <mxGeometry x="357" y="140" width="120" height="60" as="geometry" />
        </mxCell>
        <mxCell id="oylmR4pLxYia0qEO0QHr-7" value="" style="endArrow=none;html=1;rounded=0;entryX=0.844;entryY=0.986;entryDx=0;entryDy=0;entryPerimeter=0;" edge="1" parent="1" target="oylmR4pLxYia0qEO0QHr-5">
          <mxGeometry width="50" height="50" relative="1" as="geometry">
            <mxPoint x="363" y="211" as="sourcePoint" />
            <mxPoint x="593" y="440" as="targetPoint" />
            <Array as="points" />
          </mxGeometry>
        </mxCell>
        <mxCell id="oylmR4pLxYia0qEO0QHr-8" value="" style="endArrow=none;html=1;rounded=0;entryX=0.844;entryY=0.986;entryDx=0;entryDy=0;entryPerimeter=0;" edge="1" parent="1">
          <mxGeometry width="50" height="50" relative="1" as="geometry">
            <mxPoint x="345" y="143.9999999999999" as="sourcePoint" />
            <mxPoint x="385.84000000000015" y="144.2800000000001" as="targetPoint" />
            <Array as="points" />
          </mxGeometry>
        </mxCell>
        <mxCell id="oylmR4pLxYia0qEO0QHr-9" value="4" style="text;html=1;align=center;verticalAlign=middle;resizable=0;points=[];autosize=1;strokeColor=none;fillColor=none;" vertex="1" parent="1">
          <mxGeometry x="325" y="137" width="20" height="20" as="geometry" />
        </mxCell>
        <mxCell id="oylmR4pLxYia0qEO0QHr-14" style="edgeStyle=orthogonalEdgeStyle;rounded=0;orthogonalLoop=1;jettySize=auto;html=1;" edge="1" parent="1" source="oylmR4pLxYia0qEO0QHr-13">
          <mxGeometry relative="1" as="geometry">
            <mxPoint x="660" y="230" as="targetPoint" />
          </mxGeometry>
        </mxCell>
        <mxCell id="oylmR4pLxYia0qEO0QHr-13" value="shift" style="rhombus;whiteSpace=wrap;html=1;" vertex="1" parent="1">
          <mxGeometry x="370" y="260" width="80" height="80" as="geometry" />
        </mxCell>
        <mxCell id="oylmR4pLxYia0qEO0QHr-16" value="" style="endArrow=none;html=1;rounded=0;" edge="1" parent="1">
          <mxGeometry width="50" height="50" relative="1" as="geometry">
            <mxPoint x="490" y="300" as="sourcePoint" />
            <mxPoint x="490" y="150" as="targetPoint" />
            <Array as="points">
              <mxPoint x="490" y="230" />
            </Array>
          </mxGeometry>
        </mxCell>
      </root>
    </mxGraphModel>
  </diagram>
</mxfile>
